<?xml version="1.0" encoding="utf-8"?>
<!-- Generator: Adobe Illustrator 26.3.1, SVG Export Plug-In . SVG Version: 6.00 Build 0)  -->
<svg version="1.1" id="Layer_1" xmlns="http://www.w3.org/2000/svg" xmlns:xlink="http://www.w3.org/1999/xlink" x="0px" y="0px"
	 viewBox="0 0 1920 800" style="enable-background:new 0 0 1920 800;" xml:space="preserve">
<style type="text/css">
	.st0{fill:#464646;}
	.st1{fill:#006A8D;}
	.st2{fill:#40AAD7;}
</style>
<g>
	<g>
		<path class="st0" d="M43.57,674.27l-1.15,8.06c-2.42-1.25-4.91-2.19-7.45-2.82c-2.54-0.63-5.19-0.94-7.94-0.94
			c-5.9,0-10.51,1.19-13.84,3.57c-3.34,2.38-5,5.66-5,9.82c0,5.25,5.62,11.09,16.85,17.51c1.54,0.85,2.71,1.52,3.51,2
			c7.8,4.53,12.87,8.38,15.21,11.57c2.34,3.19,3.52,7.07,3.52,11.64c0,7.15-2.54,12.95-7.61,17.39c-5.07,4.45-11.71,6.67-19.91,6.67
			c-3.35,0-6.69-0.33-10-1s-6.52-1.64-9.64-2.94l0.97-8.97c3.51,1.9,6.81,3.31,9.91,4.21c3.09,0.91,6.05,1.36,8.88,1.36
			c5.69,0,10.26-1.45,13.7-4.36c3.43-2.91,5.15-6.79,5.15-11.64c0-5.82-5.46-11.85-16.36-18.12c-1.7-0.97-2.99-1.72-3.88-2.24
			c-7.51-4.4-12.47-8.2-14.88-11.39c-2.4-3.19-3.6-6.95-3.6-11.27c0-6.63,2.37-11.78,7.12-15.48s11.44-5.54,20.09-5.54
			c2.62,0,5.28,0.24,7.97,0.72C37.86,672.58,40.66,673.3,43.57,674.27z"/>
		<path class="st0" d="M111.2,724.15v4.48H67.5c0.24,7.84,2.28,13.85,6.12,18.03c3.84,4.18,9.25,6.27,16.24,6.27
			c2.75,0,5.5-0.37,8.27-1.12c2.77-0.75,5.55-1.87,8.33-3.36v7.7c-2.71,1.17-5.49,2.05-8.36,2.64c-2.87,0.58-5.86,0.88-8.97,0.88
			c-9.13,0-16.28-2.89-21.45-8.67c-5.17-5.78-7.76-13.81-7.76-24.12c0-9.61,2.51-17.35,7.51-23.21c5.01-5.86,11.57-8.79,19.69-8.79
			c7.35,0,13.2,2.63,17.54,7.88C109.02,708.01,111.2,715.14,111.2,724.15z M103.62,722.87c-0.44-6.91-2.16-12.21-5.15-15.91
			c-2.99-3.7-7.07-5.55-12.24-5.55c-5.01,0-9.19,1.93-12.55,5.79c-3.35,3.86-5.33,9.08-5.94,15.66H103.62z"/>
		<path class="st0" d="M166.4,707.91v-11.57h7.09v55.2c0,11.35-2.32,19.85-6.97,25.48c-4.64,5.64-11.63,8.45-20.97,8.45
			c-3.55,0-7-0.3-10.33-0.91c-3.33-0.61-6.45-1.52-9.36-2.73l0.61-8.3c3.03,1.66,6.12,2.9,9.27,3.73c3.15,0.83,6.3,1.24,9.45,1.24
			c6.67,0,11.85-2.22,15.54-6.67s5.55-10.71,5.55-18.78v-8.06c-2.31,4.36-5.21,7.69-8.73,9.97c-3.51,2.29-7.47,3.43-11.88,3.43
			c-7.56,0-13.65-2.9-18.27-8.7c-4.63-5.8-6.94-13.48-6.94-23.06c0-9.69,2.3-17.39,6.91-23.09c4.61-5.69,10.79-8.54,18.55-8.54
			c4.64,0,8.71,1.09,12.21,3.27S164.38,703.67,166.4,707.91z M146.59,701.3c-5.41,0-9.73,2.24-12.94,6.72
			c-3.21,4.48-4.82,10.61-4.82,18.36c0,7.8,1.61,13.97,4.85,18.51c3.23,4.55,7.61,6.82,13.15,6.82c5.61,0,10.16-2.28,13.63-6.85
			c3.48-4.57,5.21-10.6,5.21-18.12c0-7.96-1.7-14.19-5.09-18.69S152.52,701.3,146.59,701.3z"/>
		<path class="st0" d="M193.37,696.33h7.7v35.39c0,6.95,1.2,12.06,3.61,15.33c2.4,3.27,6.15,4.91,11.24,4.91
			c5.9,0,10.41-2.25,13.54-6.76c3.13-4.5,4.69-11,4.69-19.48v-29.39h7.88v61.81h-7.21v-12.18c-2.26,4.36-5.14,7.63-8.63,9.79
			s-7.65,3.24-12.45,3.24c-6.67,0-11.73-2.15-15.18-6.45c-3.45-4.3-5.18-10.64-5.18-19V696.33z"/>
		<path class="st0" d="M292.75,695.85v7.94c-0.89-0.2-1.69-0.35-2.4-0.45c-0.7-0.1-1.34-0.15-1.91-0.15
			c-5.21,0-9.29,1.96-12.24,5.88c-2.95,3.92-4.42,9.36-4.42,16.3v32.78h-7.82v-61.81h7.21v13.03c1.53-4.4,3.84-7.82,6.91-10.24
			c3.07-2.43,6.65-3.64,10.73-3.64c0.56,0,1.16,0.03,1.79,0.09S291.94,695.73,292.75,695.85z"/>
		<path class="st0" d="M346.62,718.69v39.45h-6.91v-10.66c-2.3,3.8-5.2,6.67-8.7,8.61c-3.5,1.94-7.47,2.91-11.91,2.91
			c-5.94,0-10.69-1.61-14.27-4.85c-3.57-3.23-5.36-7.54-5.36-12.91c0-6.58,2.75-11.71,8.24-15.36c5.5-3.66,13.25-5.48,23.27-5.48
			h7.94c0-0.24,0.02-0.58,0.06-1.03c0.04-0.44,0.06-0.79,0.06-1.03c0-5.13-1.28-9.15-3.85-12.06c-2.57-2.91-6.11-4.36-10.64-4.36
			c-3.15,0-6.18,0.42-9.09,1.27c-2.91,0.85-5.8,2.16-8.66,3.94v-7.57c3.07-1.49,6.17-2.63,9.3-3.39c3.13-0.77,6.23-1.15,9.3-1.15
			c7.07,0,12.37,1.98,15.91,5.94C344.85,704.9,346.62,710.81,346.62,718.69z M330.25,726.75c-7.27,0-12.86,1.21-16.75,3.64
			c-3.9,2.42-5.85,5.88-5.85,10.36c0,3.56,1.14,6.44,3.42,8.63c2.28,2.2,5.28,3.3,9,3.3c5.74,0,10.31-1.82,13.72-5.45
			c3.41-3.64,5.12-8.56,5.12-14.79v-5.69H330.25z"/>
		<path class="st0" d="M407.45,665.67h7.82v92.47h-7.21v-12.67c-2.3,4.45-5.25,7.81-8.84,10.09c-3.6,2.28-7.76,3.42-12.48,3.42
			c-7.19,0-13.09-3.02-17.69-9.06c-4.61-6.04-6.91-13.89-6.91-23.54c0-9.49,2.32-17.1,6.97-22.81c4.65-5.72,10.81-8.58,18.48-8.58
			c4.32,0,8.19,1,11.6,3c3.41,2,6.17,4.88,8.27,8.63V665.67z M388.31,701.42c-5.41,0-9.72,2.27-12.91,6.82
			c-3.19,4.54-4.79,10.71-4.79,18.51c0,7.96,1.6,14.21,4.79,18.76c3.19,4.54,7.54,6.81,13.03,6.81c5.66,0,10.24-2.3,13.76-6.91
			c3.51-4.6,5.27-10.7,5.27-18.3c0-8.04-1.7-14.33-5.09-18.88C398.97,703.69,394.29,701.42,388.31,701.42z"/>
		<path class="st0" d="M460.9,695c8.76,0,15.73,2.9,20.9,8.7c5.17,5.8,7.76,13.65,7.76,23.54c0,9.9-2.6,17.78-7.79,23.63
			c-5.19,5.86-12.15,8.79-20.87,8.79c-8.69,0-15.63-2.93-20.85-8.79c-5.21-5.86-7.82-13.74-7.82-23.63c0-9.85,2.6-17.69,7.79-23.51
			C445.22,697.91,452.18,695,460.9,695z M460.9,701.54c-6.06,0-10.96,2.34-14.7,7.03c-3.74,4.69-5.61,10.87-5.61,18.54
			c0,7.63,1.88,13.81,5.64,18.51c3.76,4.71,8.65,7.06,14.67,7.06c6.22,0,11.19-2.32,14.91-6.97c3.71-4.64,5.58-10.85,5.58-18.6
			c0-7.79-1.86-14.01-5.58-18.63C472.09,703.85,467.12,701.54,460.9,701.54z"/>
		<path class="st0" d="M535.26,695.85v7.94c-0.89-0.2-1.69-0.35-2.39-0.45c-0.71-0.1-1.34-0.15-1.91-0.15
			c-5.21,0-9.29,1.96-12.24,5.88c-2.95,3.92-4.43,9.36-4.43,16.3v32.78h-7.82v-61.81h7.21v13.03c1.54-4.4,3.84-7.82,6.91-10.24
			c3.07-2.43,6.65-3.64,10.73-3.64c0.56,0,1.16,0.03,1.79,0.09S534.45,695.73,535.26,695.85z"/>
		<path class="st0" d="M589.13,718.69v39.45h-6.91v-10.66c-2.3,3.8-5.2,6.67-8.69,8.61c-3.5,1.94-7.47,2.91-11.91,2.91
			c-5.94,0-10.7-1.61-14.27-4.85s-5.37-7.54-5.37-12.91c0-6.58,2.75-11.71,8.24-15.36s13.25-5.48,23.27-5.48h7.94
			c0-0.24,0.02-0.58,0.06-1.03c0.04-0.44,0.06-0.79,0.06-1.03c0-5.13-1.28-9.15-3.85-12.06c-2.57-2.91-6.11-4.36-10.64-4.36
			c-3.15,0-6.18,0.42-9.09,1.27c-2.91,0.85-5.8,2.16-8.67,3.94v-7.57c3.07-1.49,6.17-2.63,9.3-3.39c3.13-0.77,6.23-1.15,9.3-1.15
			c7.07,0,12.37,1.98,15.91,5.94C587.36,704.9,589.13,710.81,589.13,718.69z M572.77,726.75c-7.27,0-12.86,1.21-16.76,3.64
			c-3.9,2.42-5.85,5.88-5.85,10.36c0,3.56,1.14,6.44,3.43,8.63c2.28,2.2,5.28,3.3,9,3.3c5.74,0,10.31-1.82,13.73-5.45
			c3.41-3.64,5.12-8.56,5.12-14.79v-5.69H572.77z"/>
		<path class="st0" d="M684.69,665.67h7.82v92.47h-7.21v-12.67c-2.3,4.45-5.25,7.81-8.85,10.09c-3.59,2.28-7.76,3.42-12.48,3.42
			c-7.19,0-13.09-3.02-17.7-9.06c-4.6-6.04-6.91-13.89-6.91-23.54c0-9.49,2.32-17.1,6.97-22.81c4.64-5.72,10.8-8.58,18.48-8.58
			c4.32,0,8.19,1,11.6,3c3.41,2,6.17,4.88,8.27,8.63V665.67z M665.54,701.42c-5.41,0-9.72,2.27-12.9,6.82
			c-3.2,4.54-4.79,10.71-4.79,18.51c0,7.96,1.59,14.21,4.79,18.76c3.19,4.54,7.53,6.81,13.03,6.81c5.65,0,10.24-2.3,13.75-6.91
			c3.52-4.6,5.27-10.7,5.27-18.3c0-8.04-1.7-14.33-5.09-18.88C676.2,703.69,671.52,701.42,665.54,701.42z"/>
		<path class="st0" d="M738.14,695c8.77,0,15.73,2.9,20.9,8.7c5.17,5.8,7.76,13.65,7.76,23.54c0,9.9-2.59,17.78-7.79,23.63
			c-5.19,5.86-12.15,8.79-20.88,8.79c-8.69,0-15.63-2.93-20.85-8.79c-5.21-5.86-7.82-13.74-7.82-23.63c0-9.85,2.59-17.69,7.79-23.51
			C722.45,697.91,729.41,695,738.14,695z M738.14,701.54c-6.06,0-10.96,2.34-14.7,7.03c-3.73,4.69-5.6,10.87-5.6,18.54
			c0,7.63,1.88,13.81,5.64,18.51c3.76,4.71,8.64,7.06,14.66,7.06c6.22,0,11.19-2.32,14.91-6.97c3.72-4.64,5.58-10.85,5.58-18.6
			c0-7.79-1.86-14.01-5.58-18.63C749.33,703.85,744.36,701.54,738.14,701.54z"/>
		<path class="st0" d="M881.09,675.85l-1.58,7.45c-3.23-1.58-6.61-2.76-10.15-3.55c-3.53-0.79-7.26-1.18-11.18-1.18
			c-10.75,0-19.31,3.27-25.69,9.82c-6.38,6.54-9.57,15.31-9.57,26.3c0,11.31,3.32,20.31,9.97,26.99
			c6.65,6.69,15.6,10.03,26.88,10.03c3.03,0,5.86-0.26,8.48-0.79c2.63-0.53,5.09-1.31,7.39-2.36v-29.75h-19.69v-6.97h27.76v42.06
			c-3.8,1.54-7.75,2.68-11.85,3.45c-4.1,0.77-8.38,1.15-12.82,1.15c-5.78,0-10.96-0.67-15.54-2c-4.58-1.33-8.75-3.39-12.51-6.18
			c-5.41-4-9.55-9.03-12.42-15.09c-2.87-6.06-4.3-12.83-4.3-20.3c0-4.97,0.68-9.66,2.03-14.09c1.35-4.42,3.45-8.66,6.28-12.69
			c3.51-5.13,8.42-9.16,14.72-12.09c6.3-2.93,13.23-4.39,20.79-4.39c4.16,0,8.15,0.35,11.97,1.03
			C873.84,673.38,877.53,674.43,881.09,675.85z"/>
		<path class="st0" d="M932.47,695.85v7.94c-0.89-0.2-1.69-0.35-2.4-0.45c-0.71-0.1-1.34-0.15-1.91-0.15
			c-5.21,0-9.29,1.96-12.24,5.88c-2.95,3.92-4.43,9.36-4.43,16.3v32.78h-7.82v-61.81h7.21v13.03c1.54-4.4,3.84-7.82,6.91-10.24
			s6.65-3.64,10.73-3.64c0.56,0,1.16,0.03,1.79,0.09C930.95,695.64,931.66,695.73,932.47,695.85z"/>
		<path class="st0" d="M943.68,696.33h7.7v35.39c0,6.95,1.2,12.06,3.61,15.33c2.4,3.27,6.15,4.91,11.24,4.91
			c5.9,0,10.41-2.25,13.54-6.76s4.7-11,4.7-19.48v-29.39h7.88v61.81h-7.21v-12.18c-2.26,4.36-5.14,7.63-8.64,9.79
			c-3.49,2.16-7.64,3.24-12.45,3.24c-6.67,0-11.73-2.15-15.18-6.45c-3.45-4.3-5.18-10.64-5.18-19V696.33z"/>
		<path class="st0" d="M1022.09,747.6v36.48h-7.82v-87.75h7.21v12.18c2.34-4.36,5.35-7.7,9.03-10.03c3.68-2.32,7.78-3.48,12.3-3.48
			c7.55,0,13.58,2.83,18.09,8.48c4.5,5.66,6.76,13.29,6.76,22.91c0,9.94-2.33,17.84-6.97,23.7c-4.64,5.86-10.89,8.79-18.72,8.79
			c-4.25,0-8.07-0.97-11.48-2.91C1027.08,754.02,1024.28,751.23,1022.09,747.6z M1059.24,726.87c0-7.92-1.59-14.1-4.76-18.54
			c-3.17-4.44-7.55-6.67-13.12-6.67c-5.78,0-10.43,2.28-13.97,6.85c-3.53,4.57-5.3,10.64-5.3,18.24c0,8.12,1.69,14.45,5.06,18.99
			c3.37,4.55,8.07,6.82,14.09,6.82c5.41,0,9.77-2.32,13.06-6.97C1057.6,740.95,1059.24,734.71,1059.24,726.87z"/>
		<path class="st0" d="M1107.96,695c8.77,0,15.74,2.9,20.91,8.7c5.17,5.8,7.75,13.65,7.75,23.54c0,9.9-2.59,17.78-7.79,23.63
			c-5.19,5.86-12.15,8.79-20.88,8.79c-8.68,0-15.63-2.93-20.84-8.79c-5.21-5.86-7.82-13.74-7.82-23.63c0-9.85,2.6-17.69,7.79-23.51
			C1092.28,697.91,1099.24,695,1107.96,695z M1107.96,701.54c-6.06,0-10.96,2.34-14.7,7.03c-3.73,4.69-5.6,10.87-5.6,18.54
			c0,7.63,1.88,13.81,5.64,18.51c3.76,4.71,8.64,7.06,14.66,7.06c6.22,0,11.19-2.32,14.91-6.97c3.71-4.64,5.58-10.85,5.58-18.6
			c0-7.79-1.86-14.01-5.58-18.63C1119.15,703.85,1114.18,701.54,1107.96,701.54z"/>
		<path class="st0" d="M1228.73,674.27l-1.15,8.06c-2.42-1.25-4.91-2.19-7.45-2.82c-2.54-0.63-5.19-0.94-7.94-0.94
			c-5.9,0-10.51,1.19-13.85,3.57c-3.33,2.38-5,5.66-5,9.82c0,5.25,5.62,11.09,16.85,17.51c1.53,0.85,2.71,1.52,3.51,2
			c7.79,4.53,12.87,8.38,15.21,11.57c2.34,3.19,3.52,7.07,3.52,11.64c0,7.15-2.54,12.95-7.61,17.39
			c-5.07,4.45-11.71,6.67-19.91,6.67c-3.35,0-6.69-0.33-10-1c-3.31-0.67-6.53-1.64-9.64-2.94l0.97-8.97
			c3.52,1.9,6.82,3.31,9.91,4.21c3.09,0.91,6.05,1.36,8.88,1.36c5.69,0,10.26-1.45,13.69-4.36c3.43-2.91,5.15-6.79,5.15-11.64
			c0-5.82-5.45-11.85-16.36-18.12c-1.7-0.97-2.99-1.72-3.88-2.24c-7.51-4.4-12.47-8.2-14.88-11.39c-2.4-3.19-3.61-6.95-3.61-11.27
			c0-6.63,2.38-11.78,7.12-15.48c4.74-3.7,11.44-5.54,20.09-5.54c2.63,0,5.28,0.24,7.97,0.72
			C1223.03,672.58,1225.82,673.3,1228.73,674.27z"/>
		<path class="st0" d="M1309.02,674.76v7.82c-3.39-1.29-6.63-2.24-9.69-2.85c-3.07-0.61-6.08-0.91-9.03-0.91
			c-11.19,0-19.97,3.28-26.33,9.85c-6.37,6.57-9.54,15.63-9.54,27.18c0,10.95,3.18,19.55,9.54,25.81
			c6.36,6.26,15.14,9.39,26.33,9.39c3.31,0,6.47-0.28,9.48-0.85c3.01-0.56,5.93-1.43,8.76-2.61v8.06c-2.67,0.93-5.62,1.61-8.85,2.06
			s-6.87,0.67-10.91,0.67c-13.13,0-23.58-3.86-31.36-11.57c-7.78-7.72-11.67-18.08-11.67-31.09c0-13.41,4.04-24.09,12.12-32.03
			c8.08-7.93,18.93-11.9,32.54-11.9c3.64,0,7.02,0.24,10.15,0.72C1303.7,673,1306.52,673.75,1309.02,674.76z"/>
		<path class="st0" d="M1356.05,670.52c11.51,0,20.68,4.01,27.51,12.03c6.83,8.02,10.24,18.85,10.24,32.51
			c0,13.66-3.41,24.5-10.24,32.54c-6.83,8.04-16,12.06-27.51,12.06c-11.55,0-20.74-4.03-27.57-12.09s-10.24-18.9-10.24-32.51
			c0-13.61,3.41-24.44,10.24-32.48C1335.31,674.54,1344.5,670.52,1356.05,670.52z M1356.05,677.61c-8.85,0-15.92,3.38-21.21,10.15
			c-5.29,6.77-7.94,15.83-7.94,27.18s2.65,20.42,7.94,27.21c5.29,6.79,12.36,10.18,21.21,10.18c8.84,0,15.93-3.39,21.24-10.18
			c5.31-6.79,7.97-15.86,7.97-27.21s-2.66-20.41-7.97-27.18C1371.98,680.99,1364.89,677.61,1356.05,677.61z"/>
		<path class="st0" d="M1412.1,672.03h19.15c9.25,0,16.26,1.85,21.02,5.55c4.77,3.7,7.15,9.16,7.15,16.39
			c0,5.37-1.7,9.89-5.09,13.54c-3.39,3.66-8.2,6.13-14.42,7.42c2.54,0.56,4.67,1.67,6.36,3.3c1.7,1.63,3.4,4.35,5.09,8.15
			l14.12,31.75h-8.91l-12.79-29.93c-1.58-3.55-3.5-6.07-5.76-7.54c-2.26-1.47-5.44-2.22-9.52-2.22h-8.42v39.69h-8V672.03z
			 M1420.1,679.18v32.06h9.88c6.5,0,11.58-1.52,15.24-4.55c3.66-3.03,5.48-7.23,5.48-12.6c0-5.01-1.68-8.75-5.03-11.21
			c-3.35-2.47-8.44-3.7-15.27-3.7H1420.1z"/>
	</g>
	<g>
		<path class="st1" d="M161.47,316.77c-31.37,0-55.85,11.75-73.3,35.17c-11.91,16.24-17.89,31.39-17.89,45.3h132.97
			c13.89,0,20.93-6.49,20.93-19.66c0-13.12-6.58-26.63-19.71-40.57C191.27,323.5,177.1,316.77,161.47,316.77 M70.29,452.77
			c0,18.12,7.14,35.75,21.42,52.68c17.99,21.69,41.23,32.57,69.77,32.57c33.49,0,70.12-7.16,110.45-21.53v59.58
			c-40.64,11.61-77.36,17.44-110.45,17.44c-51.58,0-91.62-16.17-119.78-48.33C14.97,515.01,1.71,475.87,1.71,427.75
			c0-46.63,12.64-84.95,38.25-115.19c28.02-34.15,68.4-51.31,120.99-51.31c35.73,0,66.18,11.95,91.22,35.84
			c25.41,23.88,38.18,52.57,38.18,86.44c0,21.4-7.94,38.4-23.86,50.66c-15.92,12.32-34.99,18.58-57.29,18.58H70.29z"/>
		<path class="st1" d="M481.49,594.12c-34.19,0-66.93-5.37-97.87-16.17v-62.03c33.48,15.91,65.14,23.98,95.35,23.98
			c16.85,0,30.83-3.7,41.93-11.16c11.13-7.26,16.57-16.29,16.57-27.1c0-14.71-13.33-28.63-39.89-41.72
			c-45.78-22.22-70.19-34.63-73.43-37.02c-26.63-17.98-39.89-40.31-39.89-67.34c0-32.27,12.57-56.5,37.56-72.85
			c21.08-13.8,47.06-20.83,78.09-20.83c26.34,0,55.55,5.25,87.72,15.54v58.98c-31.26-12.72-59.04-19.03-83.13-19.03
			c-36.03,0-54.05,11.53-54.05,34.61c0,12.27,13.27,24.66,39.89,36.97c40.74,18.61,65.72,31.17,74.81,37.58
			c26.53,19,39.75,43.08,39.75,72.15c0,33.45-14.45,58.69-43.64,75.83C538.69,587.53,512.05,594.12,481.49,594.12"/>
		<path class="st1" d="M780.44,594.12c-34.21,0-66.73-5.37-97.78-16.17v-62.03c33.38,15.91,65.19,23.98,95.47,23.98
			c16.59,0,30.53-3.7,41.6-11.16c11.18-7.26,16.85-16.29,16.85-27.1c0-14.71-13.43-28.63-40.05-41.72
			c-45.72-22.22-70.19-34.63-73.31-37.02c-26.73-17.98-39.97-40.31-39.97-67.34c0-32.27,12.45-56.5,37.52-72.85
			c21.07-13.8,47.27-20.83,78.22-20.83c26.19,0,55.43,5.25,87.67,15.54v58.98c-31.39-12.72-58.99-19.03-83.14-19.03
			c-35.95,0-54.08,11.53-54.08,34.61c0,12.27,13.21,24.66,39.84,36.97c40.83,18.61,65.69,31.17,74.82,37.58
			c26.63,19,39.87,43.08,39.87,72.15c0,33.45-14.59,58.69-43.59,75.83C837.74,587.53,811.03,594.12,780.44,594.12"/>
		<path class="st1" d="M1143,316.13c-61.37,0-91.86,36.05-91.86,107.97c0,33.22,7.56,60.2,22.64,80.63
			c16.25,22.28,39.6,33.28,69.81,33.28c59.99,0,89.97-35.77,89.97-107.41c0-34.38-7.37-61.5-21.99-81.19
			C1195.24,327.25,1172.37,316.13,1143,316.13 M1143.59,593.51c-52.18,0-92.45-16.65-121.18-50.12
			c-27.38-31.37-41.18-71.12-41.18-119.28c0-48.04,13.57-86.88,40.58-116.3c29.11-31.36,69.38-47.17,121.19-47.17
			c51.24,0,91.44,16.98,120.39,50.75c26.63,30.62,39.98,70.35,39.98,119.22c0,48.57-13.35,87.23-39.98,116.41
			C1235.24,578,1195.24,593.51,1143.59,593.51"/>
		<path class="st1" d="M1534.14,317.36c-23.07,0-45.94,3.11-68.6,9.58v252.84h-66.21V289.56c45.43-18.56,91.48-27.7,138.39-27.7
			c9.44,0,20.92,0.59,33.97,1.82v55.31C1547.8,317.99,1535.39,317.36,1534.14,317.36"/>
	</g>
	<g>
		<path class="st1" d="M1796.41,176.6L1916.16,87l-75.22-56.88c-12.26-9.68-27.7-15.46-44.51-15.46c-16.34,0-31.39,5.45-43.48,14.63
			l-76.3,57.7L1796.41,176.6z"/>
		<path class="st1" d="M1796.41,382.97l119.43,89.22l-74.9,57.27c-12.26,9.66-27.7,15.46-44.51,15.46
			c-16.34,0-31.39-5.47-43.48-14.65l-76.3-57.7L1796.41,382.97z"/>
		<polygon class="st2" points="1919,291.24 1806.02,375.75 1919,460.29 		"/>
		<path class="st2" d="M1668.77,95.41l0.03,118.6l0.24,6.95c0,0.48-0.24-5.95-0.24-5.47c0,36.46,16.95,70.19,43.55,90.21l78.3,58.51
			V186.58L1668.77,95.41z"/>
		<polygon class="st1" points="1802.21,364.26 1915.19,279.77 1802.21,195.24 		"/>
	</g>
</g>
</svg>
